<?xml version="1.0" encoding="utf-8"?>
<!-- Generator: Adobe Illustrator 17.0.0, SVG Export Plug-In . SVG Version: 6.00 Build 0)  -->
<!DOCTYPE svg PUBLIC "-//W3C//DTD SVG 1.1//EN" "http://www.w3.org/Graphics/SVG/1.1/DTD/svg11.dtd">
<svg version="1.1" id="Layer_1" xmlns="http://www.w3.org/2000/svg" xmlns:xlink="http://www.w3.org/1999/xlink" x="0px" y="0px"
	 width="135.747px" height="58.816px" viewBox="0 0 135.747 58.816" enable-background="new 0 0 135.747 58.816"
	 xml:space="preserve">
<g>
	<g>
		<path fill="#FFFFFF" d="M18.902,58.816C12,58.816,5.287,56.373,0,51.937l2.571-3.064c4.568,3.833,10.368,5.944,16.331,5.944
			c14.01,0,25.409-11.397,25.409-25.408S32.913,4,18.902,4V0c16.216,0,29.409,13.193,29.409,29.409
			C48.311,45.624,35.118,58.816,18.902,58.816z M18.948,51.185c-2.532,0-5.027-0.439-7.416-1.307l1.365-3.76
			c1.949,0.708,3.985,1.066,6.05,1.066c9.752,0,17.687-7.934,17.687-17.686c0-9.752-7.934-17.687-17.687-17.687v-4
			c11.958,0,21.687,9.729,21.687,21.687C40.634,41.456,30.906,51.185,18.948,51.185z M23.832,42.644l-1.369-3.758
			c3.882-1.414,6.49-5.14,6.49-9.271c0-5.438-4.425-9.863-9.863-9.863v-4c7.644,0,13.863,6.219,13.863,13.863
			C32.953,35.421,29.287,40.657,23.832,42.644z M24.526,33.534l-3.275-2.295c0.313-0.446,0.478-0.971,0.478-1.515
			c0-1.456-1.185-2.641-2.642-2.641v-4c3.662,0,6.642,2.979,6.642,6.641C25.729,31.095,25.313,32.412,24.526,33.534z"/>
	</g>
	<g>
		<g>
			<path fill="#FFFFFF" d="M60.151,12.19v32.145h-1.808V12.19H60.151z"/>
		</g>
		<g>
			<path fill="#FFFFFF" d="M74.828,22.818c3.054,0,5.655,1.078,7.805,3.234c2.149,2.157,3.224,4.762,3.224,7.815
				c0,3.04-1.074,5.639-3.224,7.795c-2.15,2.156-4.751,3.234-7.805,3.234c-3.041,0-5.639-1.078-7.795-3.234
				s-3.234-4.755-3.234-7.795c0-3.054,1.078-5.659,3.234-7.815C69.189,23.896,71.788,22.818,74.828,22.818z M68.379,27.419
				c-1.781,1.781-2.672,3.931-2.672,6.449c0,2.518,0.891,4.664,2.672,6.438c1.781,1.775,3.931,2.662,6.449,2.662
				c2.518,0,4.667-0.887,6.449-2.662c1.781-1.774,2.672-3.921,2.672-6.438c0-2.519-0.891-4.668-2.672-6.449
				s-3.931-2.672-6.449-2.672C72.31,24.747,70.16,25.638,68.379,27.419z"/>
			<path fill="#FFFFFF" d="M99.31,22.818c3.054,0,5.655,1.078,7.805,3.234c2.15,2.157,3.225,4.762,3.225,7.815
				c0,3.04-1.074,5.639-3.225,7.795c-2.149,2.156-4.751,3.234-7.805,3.234c-3.041,0-5.639-1.078-7.795-3.234
				c-2.157-2.156-3.234-4.755-3.234-7.795c0-3.054,1.077-5.659,3.234-7.815C93.671,23.896,96.269,22.818,99.31,22.818z
				 M92.861,27.419c-1.781,1.781-2.672,3.931-2.672,6.449c0,2.518,0.891,4.664,2.672,6.438c1.781,1.775,3.931,2.662,6.449,2.662
				c2.518,0,4.667-0.887,6.449-2.662c1.781-1.774,2.672-3.921,2.672-6.438c0-2.519-0.891-4.668-2.672-6.449
				c-1.782-1.781-3.932-2.672-6.449-2.672C96.792,24.747,94.642,25.638,92.861,27.419z"/>
			<path fill="#FFFFFF" d="M113.968,24.606h1.808v2.772c0.335-0.455,0.717-0.897,1.146-1.326c2.156-2.143,4.755-3.214,7.795-3.214
				c3.054,0,5.655,1.075,7.806,3.224c2.149,2.15,3.225,4.752,3.225,7.806c0,3.04-1.075,5.639-3.225,7.795
				c-2.15,2.156-4.752,3.234-7.806,3.234c-3.04,0-5.639-1.078-7.795-3.234c-0.429-0.429-0.811-0.871-1.146-1.326v11.532h-1.808
				V24.606z M115.776,31.979v3.777c0.349,1.728,1.179,3.248,2.491,4.56c1.781,1.782,3.932,2.673,6.449,2.673
				c2.519,0,4.668-0.891,6.449-2.673c1.781-1.78,2.672-3.931,2.672-6.448c0-2.519-0.891-4.668-2.672-6.449s-3.931-2.672-6.449-2.672
				c-2.518,0-4.668,0.891-6.449,2.672C116.955,28.731,116.125,30.251,115.776,31.979z"/>
		</g>
	</g>
</g>
</svg>
